<svg width="1162" height="300" viewBox="0 0 1162 300" fill="none" xmlns="http://www.w3.org/2000/svg">
<path d="M2.26498e-06 -2.38419e-05H160L201.6 44V132L160 176L202.8 268H223.6V300H148.4V268H164L121.2 176H64.8V268H88.8V300H2.26498e-06V268H28V32H2.26498e-06V-2.38419e-05ZM144 141.6L167.2 118V58L144.4 34.4H64.8V141.6H144ZM321.288 300L279.688 256V84L321.288 40H434.088L475.688 84V256L434.088 300H321.288ZM336.888 265.6H418.088L438.888 244.4V95.6L418.488 74.4H337.288L316.488 95.6V244.4L336.888 265.6ZM683.044 208.8L663.844 189.2H580.644L539.844 146.4V84L581.444 40H674.244L715.844 84V134.4H682.644V99.2L658.644 74.4H597.444L576.644 95.6V134.8L596.244 154.8H679.444L719.844 197.2V256L678.244 300H577.444L535.844 256V205.6H569.044V240.8L593.444 265.6H662.644L683.044 244.4V208.8ZM775.688 268H807.688V72H775.688V40H876.488V72H844.488V268H876.488V300H775.688V268ZM1076.33 300V268H1102.73L1085.53 218.4H985.528L968.328 268H995.128V300H910.328V268H931.528L999.128 72H982.328V40H1089.13V72H1071.93L1139.53 268H1161.13V300H1076.33ZM1035.53 73.2L996.328 186.4H1074.73L1035.53 73.2Z" fill="white"/>
</svg>
