<svg xmlns="http://www.w3.org/2000/svg" width="1038" height="910" viewBox="0 0 1038 910">
<g>
<path d="M 359.00 574.91 C351.59,577.77 340.26,579.31 333.50,578.38 C320.72,576.62 311.28,572.12 301.99,563.35 C294.34,556.14 289.23,547.35 286.49,536.70 C280.71,514.23 292.78,488.52 314.27,477.55 L 322.00 473.61 L 322.00 357.67 C322.00,278.74 322.35,239.62 323.09,235.12 C324.73,225.17 328.01,208.89 329.06,205.50 C333.39,191.48 333.46,191.32 340.69,176.00 C352.43,151.14 370.94,127.79 393.25,109.69 C415.74,91.46 447.16,76.51 474.50,71.03 C477.80,70.37 481.40,69.62 482.50,69.36 C488.24,68.00 509.84,66.04 519.21,66.02 C542.80,65.97 575.66,72.68 596.00,81.69 C603.06,84.82 617.57,92.29 620.15,94.12 C621.61,95.15 623.11,96.00 623.48,96.00 C623.86,96.00 628.29,98.80 633.33,102.23 C645.73,110.64 670.37,135.23 679.71,148.50 C695.14,170.42 706.06,196.20 710.86,222.00 C715.03,244.39 715.03,261.49 710.87,284.00 C709.20,293.04 706.19,304.77 704.90,307.24 C704.41,308.19 704.00,309.41 704.00,309.94 C704.00,311.90 695.05,331.73 690.65,339.55 C688.15,343.98 682.82,352.13 678.80,357.67 C659.30,384.57 636.97,403.20 606.50,418.01 C590.91,425.59 590.08,425.95 583.50,427.93 C581.30,428.59 578.60,429.49 577.50,429.93 C568.95,433.36 557.19,433.91 551.98,431.15 C544.25,427.03 541.36,414.35 546.44,406.87 C548.82,403.37 556.17,399.00 559.67,399.00 C560.60,399.00 562.74,398.56 564.43,398.02 C566.12,397.48 570.42,396.10 574.00,394.94 C584.45,391.57 603.74,381.61 614.00,374.29 C626.25,365.56 642.81,349.04 651.34,337.06 C663.36,320.16 672.59,298.14 677.16,275.50 C678.78,267.46 678.74,240.26 677.09,231.50 C671.16,199.97 659.80,176.45 639.49,153.63 C617.59,129.04 583.59,109.61 552.50,103.92 C527.35,99.32 508.48,99.09 487.00,103.12 C440.86,111.78 398.37,141.61 377.18,180.22 C372.66,188.45 365.13,205.73 363.77,211.00 C356.23,240.18 356.17,241.50 356.62,366.50 L 357.00 473.50 L 360.11 475.18 C361.82,476.10 363.86,476.61 364.64,476.31 C365.42,476.01 369.71,471.20 374.17,465.63 C396.38,437.88 408.87,410.41 413.07,380.07 C413.64,375.99 414.38,372.19 414.73,371.63 C415.07,371.07 415.66,341.11 416.04,305.06 C416.48,263.16 417.11,238.42 417.78,236.50 C418.37,234.85 419.82,230.35 421.02,226.50 C428.99,200.83 446.81,180.11 471.54,167.76 C490.37,158.35 508.21,154.99 528.50,157.01 C536.90,157.85 539.51,158.33 549.25,160.83 C554.78,162.25 568.87,169.36 577.20,174.93 C583.98,179.47 596.23,191.20 600.24,197.00 C601.20,198.38 603.25,201.30 604.80,203.50 C609.02,209.47 614.58,223.28 617.06,233.95 C618.98,242.17 619.19,245.27 618.73,257.95 C618.16,273.53 616.87,279.15 610.95,291.79 C609.33,295.26 608.00,298.32 608.00,298.60 C608.00,300.18 598.71,312.47 593.07,318.36 C584.55,327.25 577.59,332.52 566.50,338.47 C547.08,348.90 544.38,350.49 539.03,354.59 C513.23,374.37 502.42,404.10 511.13,431.31 C514.05,440.44 521.29,454.21 527.53,462.50 C541.29,480.77 565.98,499.36 588.00,508.00 C591.03,509.18 594.85,510.74 596.50,511.45 C612.20,518.24 639.24,522.88 663.57,522.95 L 679.63 523.00 L 681.91 518.95 C685.45,512.65 694.30,504.21 700.19,501.52 C708.19,497.86 718.72,496.40 725.78,497.96 C739.19,500.92 749.81,509.17 755.39,520.94 C758.26,526.99 758.50,528.32 758.50,538.05 C758.50,548.24 758.37,548.87 754.73,556.24 C750.47,564.84 745.24,570.09 736.78,574.23 C725.26,579.87 711.67,580.14 700.63,574.96 C695.07,572.34 685.57,564.00 683.42,559.85 L 681.95 557.00 L 665.93 557.00 C624.42,557.00 593.55,549.98 560.45,533.01 C511.07,507.69 477.17,463.19 473.60,419.00 C473.04,412.08 474.26,397.12 475.91,390.50 C476.46,388.30 477.20,385.15 477.56,383.50 C478.88,377.46 487.83,360.29 493.73,352.49 C505.72,336.63 519.97,324.79 539.50,314.44 C561.56,302.76 571.77,293.67 578.45,279.80 C582.49,271.38 583.29,267.68 583.73,255.31 C584.05,246.01 583.76,242.91 581.99,236.97 C577.03,220.30 565.99,206.76 550.58,198.44 C538.19,191.74 524.09,189.15 510.08,190.98 C498.48,192.50 493.80,194.00 484.56,199.13 C471.05,206.65 460.35,219.17 454.85,233.91 C450.50,245.56 449.86,256.40 450.10,313.50 C450.25,349.42 449.95,367.16 449.09,373.50 C443.92,411.35 436.10,434.33 418.47,463.54 C412.25,473.85 406.49,481.46 396.82,492.16 C392.52,496.92 389.01,501.42 389.02,502.16 C389.04,502.90 389.94,506.16 391.02,509.41 C393.39,516.47 393.70,531.78 391.64,539.50 C389.12,548.92 383.58,557.73 375.62,564.97 C369.94,570.13 367.34,571.69 359.00,574.91 ZM 381.50 870.25 C374.46,871.59 348.29,872.05 343.50,870.91 C341.30,870.39 337.25,869.46 334.50,868.85 C327.10,867.19 313.39,861.03 306.00,856.04 C298.65,851.08 287.84,840.55 283.32,833.94 C266.68,809.62 261.27,779.49 268.52,751.50 C270.68,743.15 271.73,740.37 276.03,731.55 C287.67,707.72 310.53,689.75 337.90,682.94 C363.31,676.61 392.71,681.76 414.50,696.35 C432.53,708.42 445.35,726.66 452.63,750.60 C455.06,758.60 455.34,761.11 455.42,775.50 C455.51,793.13 454.07,800.77 447.82,815.77 C436.50,842.96 409.89,864.82 381.50,870.25 ZM 83.75 869.01 C78.66,869.02 72.93,869.20 71.00,869.42 C69.07,869.64 65.93,869.53 64.00,869.16 L 60.50 868.50 L 60.50 684.50 L 109.31 684.24 C155.15,684.00 158.61,684.10 166.10,685.96 C177.07,688.69 186.10,693.42 193.68,700.39 C201.02,707.15 204.17,712.05 207.73,722.27 C209.90,728.50 210.25,731.22 210.25,742.00 C210.25,752.72 209.90,755.51 207.77,761.61 C201.96,778.28 191.47,788.63 172.25,796.67 C170.46,797.42 169.00,798.36 169.00,798.76 C169.01,799.17 170.85,801.93 173.10,804.90 C175.35,807.86 182.74,818.66 189.53,828.90 C196.32,839.13 204.83,851.75 208.44,856.94 C212.05,862.13 215.00,866.92 215.00,867.58 C215.00,868.92 183.94,870.73 179.79,869.63 C178.15,869.20 171.39,859.82 156.00,836.61 C136.47,807.17 134.22,804.16 131.50,803.85 C129.85,803.66 120.86,803.50 111.52,803.50 L 94.53 803.50 L 93.88 806.50 C93.53,808.15 93.18,822.89 93.12,839.25 L 93.00 869.00 ZM 981.75 869.44 C975.56,869.81 968.09,870.01 965.14,869.89 C960.32,869.70 959.58,869.36 957.89,866.59 C956.85,864.89 956.01,863.21 956.00,862.85 C956.00,862.49 954.17,858.22 951.93,853.35 C945.85,840.10 945.39,839.06 942.47,831.74 L 939.78 824.98 L 851.51 825.50 L 849.16 831.50 C845.23,841.52 836.86,861.27 834.85,865.25 L 832.96 869.00 L 817.04 869.00 C807.82,869.00 800.87,868.59 800.52,868.03 C800.19,867.50 800.62,865.71 801.47,864.06 C802.32,862.41 804.55,857.33 806.41,852.78 C810.10,843.76 818.18,825.03 822.50,815.50 C827.22,805.08 827.77,803.82 834.34,788.50 C837.88,780.25 843.01,768.33 845.74,762.00 C848.47,755.67 852.41,746.45 854.48,741.50 C856.56,736.55 859.04,730.70 860.00,728.50 C860.96,726.30 862.98,721.58 864.49,718.00 C865.99,714.42 868.98,707.76 871.11,703.19 C873.25,698.63 875.00,694.48 875.00,693.97 C875.00,693.47 876.14,690.57 877.53,687.53 L 880.06 682.00 L 911.95 682.00 L 913.85 686.25 C914.90,688.59 918.11,695.90 920.99,702.50 C923.86,709.10 927.91,718.33 929.98,723.00 C932.05,727.67 936.11,737.12 939.00,744.00 C943.51,754.72 947.68,764.26 958.23,788.00 C959.33,790.47 960.86,793.96 961.62,795.75 C965.07,803.86 966.42,806.93 969.23,813.00 C970.89,816.58 974.15,824.00 976.49,829.50 C978.83,835.00 983.50,845.48 986.87,852.80 C990.24,860.11 993.00,866.70 993.00,867.43 C993.00,868.42 990.11,868.93 981.75,869.44 ZM 598.20 870.97 C591.99,872.18 573.67,872.15 566.50,870.92 C543.09,866.89 527.72,859.99 509.87,845.50 C508.51,844.40 507.05,842.92 506.62,842.21 C505.84,840.93 511.42,833.44 521.27,822.53 L 525.76 817.56 L 531.13 822.14 C539.63,829.38 547.52,834.08 559.50,839.02 C566.82,842.04 590.90,842.94 598.71,840.48 C610.26,836.84 616.00,829.72 616.00,819.00 C616.00,804.91 608.42,799.28 579.50,791.89 C577.30,791.32 574.15,790.49 572.50,790.03 C570.85,789.56 567.03,788.61 564.00,787.91 C560.97,787.21 558.07,786.27 557.55,785.82 C557.03,785.37 555.78,785.00 554.79,785.00 C553.79,785.00 552.08,784.55 550.99,784.00 L 547.01 782.00 C545.92,781.45 544.60,781.00 544.07,781.00 C542.05,781.00 530.30,773.42 525.82,769.24 C521.15,764.87 516.18,756.15 513.99,748.50 C512.69,743.93 513.14,726.42 514.71,720.87 C516.45,714.72 521.03,706.25 525.15,701.57 C529.88,696.19 540.46,689.10 548.00,686.24 C560.20,681.61 560.98,681.50 580.50,681.58 C599.13,681.67 599.68,681.73 608.94,684.87 C619.75,688.53 627.80,692.43 635.92,697.95 C640.43,701.01 642.74,702.46 643.09,704.29 C643.44,706.12 641.87,708.31 638.61,712.84 C638.40,713.14 638.18,713.44 637.96,713.75 C631.08,723.35 627.09,728.00 625.76,728.00 C625.28,728.00 622.33,726.29 619.20,724.19 C613.97,720.70 602.35,714.66 597.50,712.93 C593.77,711.59 582.30,710.00 576.41,710.00 C564.65,710.00 552.21,715.90 548.30,723.34 C545.70,728.28 546.10,738.66 549.07,743.18 C553.66,750.18 564.19,755.36 582.00,759.38 C589.32,761.03 590.71,761.38 600.00,763.99 C627.74,771.79 642.11,783.21 647.90,802.07 C648.51,804.04 649.00,810.76 649.00,817.00 C649.00,826.07 648.57,829.60 646.86,834.43 C639.85,854.26 624.40,865.86 598.20,870.97 ZM 347.50 840.76 C352.66,842.03 370.22,842.27 373.20,841.10 C374.47,840.61 377.52,839.62 380.00,838.89 C392.57,835.21 406.48,823.42 412.97,810.93 C418.78,799.78 421.09,789.97 421.09,776.50 C421.10,763.29 419.38,755.77 413.69,744.00 C408.18,732.61 398.61,722.97 387.39,717.49 C376.95,712.40 376.78,712.34 367.31,710.90 C345.40,707.58 324.36,717.54 310.63,737.74 C301.75,750.80 297.60,769.38 300.01,785.23 C304.35,813.74 322.09,834.48 347.50,840.76 ZM 743.20 868.89 C741.40,869.86 715.64,870.21 713.25,869.31 C712.26,868.93 712.00,849.43 712.00,776.39 L 712.00 683.95 L 744.50 684.50 L 744.76 776.21 C745.00,863.90 744.93,867.97 743.20,868.89 ZM 97.00 774.26 C102.66,775.32 141.80,774.84 148.51,773.64 C161.23,771.36 170.41,765.05 174.90,755.50 C178.10,748.69 177.87,736.65 174.42,729.83 C171.15,723.39 166.98,719.46 160.00,716.25 C154.59,713.76 153.98,713.70 124.64,713.22 C99.92,712.82 94.63,712.97 93.91,714.12 C92.85,715.78 92.72,771.01 93.77,772.65 C94.17,773.28 95.62,774.01 97.00,774.26 ZM 866.00 793.99 C866.00,795.96 866.59,796.00 896.00,796.00 C898.06,796.00 899.98,796.00 901.77,796.00 C919.49,796.02 925.00,796.03 925.81,794.08 C926.17,793.20 925.58,791.93 924.72,790.08 C924.53,789.66 924.33,789.22 924.11,788.74 C920.60,780.83 904.14,741.53 902.46,737.00 C899.77,729.80 897.14,724.20 896.14,723.59 C895.04,722.91 893.73,725.58 887.16,742.00 C884.41,748.88 880.06,759.22 877.49,765.00 C869.78,782.32 866.00,791.86 866.00,793.99 Z" fill="rgb(48,137,202)"/>
<path d="M 0.00 455.00 L 0.00 0.00 L 519.00 0.00 L 1038.00 0.00 L 1038.00 455.00 L 1038.00 910.00 L 519.00 910.00 L 0.00 910.00 L 0.00 455.00 ZM 381.50 870.25 C409.89,864.82 436.50,842.96 447.82,815.77 C454.07,800.77 455.51,793.13 455.42,775.50 C455.34,761.11 455.06,758.60 452.63,750.60 C445.35,726.66 432.53,708.42 414.50,696.35 C392.71,681.76 363.31,676.61 337.90,682.94 C310.53,689.75 287.67,707.72 276.03,731.55 C271.73,740.37 270.68,743.15 268.52,751.50 C261.27,779.49 266.68,809.62 283.32,833.94 C287.84,840.55 298.65,851.08 306.00,856.04 C313.39,861.03 327.10,867.19 334.50,868.85 C337.25,869.46 341.30,870.39 343.50,870.91 C348.29,872.05 374.46,871.59 381.50,870.25 ZM 598.20 870.97 C624.40,865.86 639.85,854.26 646.86,834.43 C648.57,829.60 649.00,826.07 649.00,817.00 C649.00,810.76 648.51,804.04 647.90,802.07 C642.11,783.21 627.74,771.79 600.00,763.99 C590.71,761.38 589.32,761.03 582.00,759.38 C564.19,755.36 553.66,750.18 549.07,743.18 C546.10,738.66 545.70,728.28 548.30,723.34 C552.21,715.90 564.65,710.00 576.41,710.00 C582.30,710.00 593.77,711.59 597.50,712.93 C602.35,714.66 613.97,720.70 619.20,724.19 C622.33,726.29 625.28,728.00 625.76,728.00 C627.09,728.00 631.08,723.35 637.96,713.75 C645.14,703.73 645.21,704.25 635.92,697.95 C627.80,692.43 619.75,688.53 608.94,684.87 C599.68,681.73 599.13,681.67 580.50,681.58 C560.98,681.50 560.20,681.61 548.00,686.24 C540.46,689.10 529.88,696.19 525.15,701.57 C521.03,706.25 516.45,714.72 514.71,720.87 C513.14,726.42 512.69,743.93 513.99,748.50 C516.18,756.15 521.15,764.87 525.82,769.24 C530.30,773.42 542.05,781.00 544.07,781.00 C544.60,781.00 545.92,781.45 547.01,782.00 C548.11,782.55 549.89,783.45 550.99,784.00 C552.08,784.55 553.79,785.00 554.79,785.00 C555.78,785.00 557.03,785.37 557.55,785.82 C558.07,786.27 560.97,787.21 564.00,787.91 C567.03,788.61 570.85,789.56 572.50,790.03 C574.15,790.49 577.30,791.32 579.50,791.89 C608.42,799.28 616.00,804.91 616.00,819.00 C616.00,829.72 610.26,836.84 598.71,840.48 C590.90,842.94 566.82,842.04 559.50,839.02 C547.52,834.08 539.63,829.38 531.13,822.14 L 525.76 817.56 L 521.27 822.53 C511.42,833.44 505.84,840.93 506.62,842.21 C507.05,842.92 508.51,844.40 509.87,845.50 C527.72,859.99 543.09,866.89 566.50,870.92 C573.67,872.15 591.99,872.18 598.20,870.97 ZM 83.75 869.01 L 93.00 869.00 L 93.12 839.25 C93.18,822.89 93.53,808.15 93.88,806.50 L 94.53 803.50 L 111.52 803.50 C120.86,803.50 129.85,803.66 131.50,803.85 C134.22,804.16 136.47,807.17 156.00,836.61 C171.39,859.82 178.15,869.20 179.79,869.63 C183.94,870.73 215.00,868.92 215.00,867.58 C215.00,866.92 212.05,862.13 208.44,856.94 C204.83,851.75 196.32,839.13 189.53,828.90 C182.74,818.66 175.35,807.86 173.10,804.90 C170.85,801.93 169.01,799.17 169.00,798.76 C169.00,798.36 170.46,797.42 172.25,796.67 C191.47,788.63 201.96,778.28 207.77,761.61 C209.90,755.51 210.25,752.72 210.25,742.00 C210.25,731.22 209.90,728.50 207.73,722.27 C204.17,712.05 201.02,707.15 193.68,700.39 C186.10,693.42 177.07,688.69 166.10,685.96 C158.61,684.10 155.15,684.00 109.31,684.24 L 60.50 684.50 L 60.50 776.50 L 60.50 868.50 L 64.00 869.16 C65.93,869.53 69.07,869.64 71.00,869.42 C72.93,869.20 78.66,869.02 83.75,869.01 ZM 743.20 868.89 C744.93,867.97 745.00,863.90 744.76,776.21 L 744.50 684.50 L 728.25 684.23 L 712.00 683.95 L 712.00 776.39 C712.00,849.43 712.26,868.93 713.25,869.31 C715.64,870.21 741.40,869.86 743.20,868.89 ZM 981.75 869.44 C990.11,868.93 993.00,868.42 993.00,867.43 C993.00,866.70 990.24,860.11 986.87,852.80 C983.50,845.48 978.83,835.00 976.49,829.50 C974.15,824.00 970.89,816.58 969.23,813.00 C966.42,806.93 965.07,803.86 961.62,795.75 C960.86,793.96 959.33,790.47 958.23,788.00 C947.68,764.26 943.51,754.72 939.00,744.00 C936.11,737.12 932.05,727.67 929.98,723.00 C927.91,718.33 923.86,709.10 920.99,702.50 C918.11,695.90 914.90,688.59 913.85,686.25 L 911.95 682.00 L 896.00 682.00 L 880.06 682.00 L 877.53 687.53 C876.14,690.57 875.00,693.47 875.00,693.97 C875.00,694.48 873.25,698.63 871.11,703.19 C868.98,707.76 865.99,714.42 864.49,718.00 C862.98,721.58 860.96,726.30 860.00,728.50 C859.04,730.70 856.56,736.55 854.48,741.50 C852.41,746.45 848.47,755.67 845.74,762.00 C843.01,768.33 837.88,780.25 834.34,788.50 C827.77,803.82 827.22,805.08 822.50,815.50 C818.18,825.03 810.10,843.76 806.41,852.78 C804.55,857.33 802.32,862.41 801.47,864.06 C800.62,865.71 800.19,867.50 800.52,868.03 C800.87,868.59 807.82,869.00 817.04,869.00 L 832.96 869.00 L 834.85 865.25 C836.86,861.27 845.23,841.52 849.16,831.50 L 851.51 825.50 L 895.64 825.24 L 939.78 824.98 L 942.47 831.74 C945.39,839.06 945.85,840.10 951.93,853.35 C954.17,858.22 956.00,862.49 956.00,862.85 C956.01,863.21 956.85,864.89 957.89,866.59 C959.58,869.36 960.32,869.70 965.14,869.89 C968.09,870.01 975.56,869.81 981.75,869.44 ZM 359.00 574.91 C367.34,571.69 369.94,570.13 375.62,564.97 C383.58,557.73 389.12,548.92 391.64,539.50 C393.70,531.78 393.39,516.47 391.02,509.41 C389.94,506.16 389.04,502.90 389.02,502.16 C389.01,501.42 392.52,496.92 396.82,492.16 C406.49,481.46 412.25,473.85 418.47,463.54 C436.10,434.33 443.92,411.35 449.09,373.50 C449.95,367.16 450.25,349.42 450.10,313.50 C449.86,256.40 450.50,245.56 454.85,233.91 C460.35,219.17 471.05,206.65 484.56,199.13 C493.80,194.00 498.48,192.50 510.08,190.98 C524.09,189.15 538.19,191.74 550.58,198.44 C565.99,206.76 577.03,220.30 581.99,236.97 C583.76,242.91 584.05,246.01 583.73,255.31 C583.29,267.68 582.49,271.38 578.45,279.80 C571.77,293.67 561.56,302.76 539.50,314.44 C519.97,324.79 505.72,336.63 493.73,352.49 C487.83,360.29 478.88,377.46 477.56,383.50 C477.20,385.15 476.46,388.30 475.91,390.50 C474.26,397.12 473.04,412.08 473.60,419.00 C477.17,463.19 511.07,507.69 560.45,533.01 C593.55,549.98 624.42,557.00 665.93,557.00 L 681.95 557.00 L 683.42 559.85 C685.57,564.00 695.07,572.34 700.63,574.96 C711.67,580.14 725.26,579.87 736.78,574.23 C745.24,570.09 750.47,564.84 754.73,556.24 C758.37,548.87 758.50,548.24 758.50,538.05 C758.50,528.32 758.26,526.99 755.39,520.94 C749.81,509.17 739.19,500.92 725.78,497.96 C718.72,496.40 708.19,497.86 700.19,501.52 C694.30,504.21 685.45,512.65 681.91,518.95 L 679.63 523.00 L 663.57 522.95 C639.24,522.88 612.20,518.24 596.50,511.45 C594.85,510.74 591.03,509.18 588.00,508.00 C565.98,499.36 541.29,480.77 527.53,462.50 C521.29,454.21 514.05,440.44 511.13,431.31 C502.42,404.10 513.23,374.37 539.03,354.59 C544.38,350.49 547.08,348.90 566.50,338.47 C577.59,332.52 584.55,327.25 593.07,318.36 C598.71,312.47 608.00,300.18 608.00,298.60 C608.00,298.32 609.33,295.26 610.95,291.79 C616.87,279.15 618.16,273.53 618.73,257.95 C619.19,245.27 618.98,242.17 617.06,233.95 C614.58,223.28 609.02,209.47 604.80,203.50 C603.25,201.30 601.20,198.38 600.24,197.00 C596.23,191.20 583.98,179.47 577.20,174.93 C568.87,169.36 554.78,162.25 549.25,160.83 C539.51,158.33 536.90,157.85 528.50,157.01 C508.21,154.99 490.37,158.35 471.54,167.76 C446.81,180.11 428.99,200.83 421.02,226.50 C419.82,230.35 418.37,234.85 417.78,236.50 C417.11,238.42 416.48,263.16 416.04,305.06 C415.66,341.11 415.07,371.07 414.73,371.63 C414.38,372.19 413.64,375.99 413.07,380.07 C408.87,410.41 396.38,437.88 374.17,465.63 C369.71,471.20 365.42,476.01 364.64,476.31 C363.86,476.61 361.82,476.10 360.11,475.18 L 357.00 473.50 L 356.62 366.50 C356.17,241.50 356.23,240.18 363.77,211.00 C365.13,205.73 372.66,188.45 377.18,180.22 C398.37,141.61 440.86,111.78 487.00,103.12 C508.48,99.09 527.35,99.32 552.50,103.92 C583.59,109.61 617.59,129.04 639.49,153.63 C659.80,176.45 671.16,199.97 677.09,231.50 C678.74,240.26 678.78,267.46 677.16,275.50 C672.59,298.14 663.36,320.16 651.34,337.06 C642.81,349.04 626.25,365.56 614.00,374.29 C603.74,381.61 584.45,391.57 574.00,394.94 C570.42,396.10 566.12,397.48 564.43,398.02 C562.74,398.56 560.60,399.00 559.67,399.00 C556.17,399.00 548.82,403.37 546.44,406.87 C541.36,414.35 544.25,427.03 551.98,431.15 C557.19,433.91 568.95,433.36 577.50,429.93 C578.60,429.49 581.30,428.59 583.50,427.93 C590.08,425.95 590.91,425.59 606.50,418.01 C636.97,403.20 659.30,384.57 678.80,357.67 C682.82,352.13 688.15,343.98 690.65,339.55 C695.05,331.73 704.00,311.90 704.00,309.94 C704.00,309.41 704.41,308.19 704.90,307.24 C706.19,304.77 709.20,293.04 710.87,284.00 C715.03,261.49 715.03,244.39 710.86,222.00 C706.06,196.20 695.14,170.42 679.71,148.50 C670.37,135.23 645.73,110.64 633.33,102.23 C628.29,98.80 623.86,96.00 623.48,96.00 C623.11,96.00 621.61,95.15 620.15,94.12 C617.57,92.29 603.06,84.82 596.00,81.69 C575.66,72.68 542.80,65.97 519.21,66.02 C509.84,66.04 488.24,68.00 482.50,69.36 C481.40,69.62 477.80,70.37 474.50,71.03 C447.16,76.51 415.74,91.46 393.25,109.69 C370.94,127.79 352.43,151.14 340.69,176.00 C333.46,191.32 333.39,191.48 329.06,205.50 C328.01,208.89 324.73,225.17 323.09,235.12 C322.35,239.62 322.00,278.74 322.00,357.67 L 322.00 473.61 L 314.27 477.55 C292.78,488.52 280.71,514.23 286.49,536.70 C289.23,547.35 294.34,556.14 301.99,563.35 C311.28,572.12 320.72,576.62 333.50,578.38 C340.26,579.31 351.59,577.77 359.00,574.91 ZM 347.50 840.76 C322.09,834.48 304.35,813.74 300.01,785.23 C297.60,769.38 301.75,750.80 310.63,737.74 C324.36,717.54 345.40,707.58 367.31,710.90 C376.78,712.34 376.95,712.40 387.39,717.49 C398.61,722.97 408.18,732.61 413.69,744.00 C419.38,755.77 421.10,763.29 421.09,776.50 C421.09,789.97 418.78,799.78 412.97,810.93 C406.48,823.42 392.57,835.21 380.00,838.89 C377.52,839.62 374.47,840.61 373.20,841.10 C370.22,842.27 352.66,842.03 347.50,840.76 ZM 97.00 774.26 C95.62,774.01 94.17,773.28 93.77,772.65 C92.72,771.01 92.85,715.78 93.91,714.12 C94.63,712.97 99.92,712.82 124.64,713.22 C153.98,713.70 154.59,713.76 160.00,716.25 C166.98,719.46 171.15,723.39 174.42,729.83 C177.87,736.65 178.10,748.69 174.90,755.50 C170.41,765.05 161.23,771.36 148.51,773.64 C141.80,774.84 102.66,775.32 97.00,774.26 ZM 866.00 793.99 C866.00,791.86 869.78,782.32 877.49,765.00 C880.06,759.22 884.41,748.88 887.16,742.00 C893.73,725.58 895.04,722.91 896.14,723.59 C897.14,724.20 899.77,729.80 902.46,737.00 C904.14,741.53 920.60,780.83 924.11,788.74 C927.57,796.51 929.52,796.00 896.00,796.00 C866.59,796.00 866.00,795.96 866.00,793.99 Z" fill="rgb(252,254,254)"/>
</g>
</svg>