<?xml version="1.0" encoding="utf-8"?>
<svg xmlns="http://www.w3.org/2000/svg" viewBox="56.0933 41.2944 407.391 427.8781" width="407.391px" height="427.878px" preserveAspectRatio="none"><path d="M 251.666 41.391 C 292.429 40.01 337.338 53.456 367.545 80.653 C 382.791 94.647 396.367 108.443 406.334 126.513 C 406.877 127.498 406.877 127.498 407.433 128.503 C 416.256 144.774 422.243 162.417 424.391 180.714 C 424.468 181.36 424.546 182.005 424.626 182.671 C 427.674 209.704 422.106 236.455 409.773 260.765 C 409.477 261.358 409.182 261.951 408.876 262.562 C 393.64 292.837 368.811 316.607 338.404 332.477 C 337.262 333.077 337.262 333.077 336.097 333.687 C 304.096 350.303 304.096 350.303 289.204 347.073 C 284.384 345.53 282.186 343.248 279.719 338.94 C 278.445 334.413 278.305 330.605 280.524 326.38 C 284.642 321.739 288.666 319.382 294.766 318.093 C 312.05 313.959 329.856 306.042 343.564 294.954 C 344.013 294.602 344.463 294.251 344.926 293.888 C 364.179 278.812 378.214 260.806 386.825 238.251 C 387.095 237.55 387.364 236.849 387.642 236.127 C 392.214 223.616 394.089 211.863 393.973 198.642 C 393.969 197.553 393.969 197.553 393.965 196.442 C 393.886 184.002 392.507 172.52 388.276 160.702 C 387.869 159.562 387.869 159.562 387.454 158.399 C 377.18 130.476 324.162 86.685 322.208 85.722 C 306.868 78.229 290.947 73.572 273.915 71.478 C 273.105 71.37 272.296 71.261 271.462 71.15 C 235.731 67.126 197.77 77.605 169.532 99.147 C 142.017 120.753 124.217 149.926 119.763 184.217 C 117.502 205.209 118.138 226.607 118.173 247.688 C 118.173 250.112 118.173 252.537 118.173 254.961 C 118.19 297.201 118.663 339.439 119.136 381.675 C 121.638 382.885 123.254 382.841 126.015 382.509 C 127.769 381.052 128.981 379.819 130.374 378.08 C 130.77 377.599 131.165 377.117 131.578 376.622 C 148.19 356.223 160.452 333.971 165.25 308.285 C 165.517 306.921 165.818 305.564 166.127 304.211 C 167.228 299.321 167.52 294.452 167.752 289.468 C 167.787 288.695 167.821 287.924 167.864 287.129 C 168.191 279.817 168.32 272.509 168.371 265.191 C 168.397 262.886 168.414 260.581 168.44 258.275 C 168.492 253.372 168.535 248.47 168.578 243.567 C 168.913 206.801 168.913 206.801 169.335 193.502 C 169.352 192.639 169.369 191.776 169.395 190.885 C 169.687 183.043 171.673 176.148 175.027 169.04 C 175.293 168.487 175.551 167.933 175.818 167.362 C 183.883 150.76 196.377 137.152 212.861 128.181 C 213.824 127.651 214.796 127.119 215.784 126.572 C 235.912 116.166 261.312 113.631 283.226 120.059 C 295.375 124.079 306.463 130.402 315.799 138.927 C 317.738 140.718 317.738 140.718 319.88 142.256 C 333.293 153.105 341.47 171.691 343.564 188.219 C 344.778 207.982 341.722 228.291 328.516 244.192 C 327.242 245.561 325.952 246.916 324.647 248.257 C 324.018 248.973 323.389 249.687 322.742 250.424 C 312.755 261.709 300.019 268.11 286.739 275.133 C 269.093 284.537 256.861 297.576 250.651 316.181 C 245.727 334.079 251.745 350.631 260.939 366.093 C 274.653 387.066 297.278 402.594 320.885 411.434 C 321.411 411.632 321.937 411.83 322.479 412.035 C 331.149 415.281 339.547 417.826 348.723 419.199 C 349.456 419.319 350.19 419.439 350.946 419.563 C 361.186 421.204 371.495 422.035 381.866 422.279 C 383.049 422.31 384.232 422.355 385.413 422.411 C 389.072 422.576 392.458 422.591 396.015 421.701 C 398.491 419.512 399.75 417.102 401.174 414.196 C 407.758 406.441 415.724 402.422 425.949 401.063 C 435.822 400.314 445.113 404.081 452.971 409.747 C 459.533 415.7 463.157 422.877 463.467 431.484 C 463.678 442.991 462.043 450.778 453.894 459.642 C 445.892 466.597 436.252 469.417 425.64 469.156 C 418.183 468.454 413.076 466.144 407.194 461.726 C 406.599 461.291 406.005 460.856 405.393 460.407 C 402.865 458.439 401.328 457.007 399.784 454.174 C 397.944 451.444 397.944 451.444 394.735 451.102 C 393.537 451.079 392.339 451.083 391.142 451.108 C 390.494 451.1 389.847 451.093 389.179 451.085 C 387.104 451.065 385.031 451.078 382.956 451.094 C 380.257 451.093 377.557 451.078 374.857 451.055 C 374.187 451.051 373.515 451.046 372.823 451.041 C 330.544 450.487 287.379 434.125 256.717 405.857 C 256.258 405.44 255.799 405.022 255.326 404.591 C 240.426 390.949 228.847 374.773 222.323 355.826 C 221.967 354.798 221.611 353.771 221.245 352.712 C 215.535 334.186 217.1 312.346 226.3 295.215 C 227.785 292.593 229.334 290.014 230.921 287.449 C 231.279 286.867 231.637 286.285 232.005 285.685 C 242.71 268.533 258.569 257.446 276.255 247.681 C 283.29 243.79 290.085 240.029 296.271 234.915 C 297.016 234.417 297.76 233.918 298.528 233.404 C 307.934 225.002 312.121 213.302 312.857 201.236 C 313.454 186.787 309.245 173.97 299.334 162.89 C 295.643 159.094 285.356 151.901 284.605 151.663 C 282.653 151.023 280.711 150.353 278.781 149.65 C 263.581 144.288 248.053 144.583 232.933 150.227 C 227.675 152.611 222.365 155.606 218.278 159.653 C 217.16 160.702 212.414 165.661 210.926 167.372 C 200.324 180.483 198.965 195.628 199 211.734 C 199 212.609 198.991 213.483 198.991 214.385 C 198.991 216.269 198.991 218.151 198.991 220.035 C 198.983 224.08 198.965 228.124 198.948 232.17 C 198.914 239.671 198.888 247.172 198.888 254.675 C 198.888 259.92 198.871 265.165 198.836 270.41 C 198.828 272.383 198.828 274.356 198.836 276.329 C 198.948 314.738 187.426 355.58 162.129 385.845 C 161.518 386.588 160.899 387.332 160.272 388.099 C 154.983 394.41 154.983 394.41 152.12 397.339 C 148.087 401.33 148.087 401.33 146.522 406.474 C 146.961 408.602 147.597 410.497 148.371 412.528 C 151.467 424.235 149.308 437.45 143.091 447.772 C 135.413 458.724 126.006 465.404 112.687 468.195 C 98.422 470.477 87.57 467.764 75.635 460.339 C 66.056 453.627 59.564 443.638 56.907 432.489 C 56.692 431.122 56.512 429.748 56.366 428.372 C 56.288 427.613 56.211 426.854 56.125 426.072 C 55.626 416.729 61.129 408.344 64.913 399.934 C 65.48 399.934 64.38 400.02 64.964 400.02 C 65.205 399.533 65.437 399.046 65.678 398.545 C 69.788 390.964 77.252 386.556 84.741 382.509 C 85.885 382.202 87.028 381.917 88.181 381.675 C 88.181 380.703 88.181 379.731 88.181 378.729 C 88.12 355.577 88.077 332.424 88.052 309.272 C 88.052 306.413 88.043 303.555 88.043 300.696 C 88.043 300.128 88.043 299.559 88.043 298.973 C 88.026 289.796 88.009 280.619 87.983 271.443 C 87.957 262.006 87.948 252.569 87.94 243.132 C 87.94 237.841 87.931 232.549 87.914 227.257 C 87.897 222.262 87.888 217.268 87.888 212.274 C 87.888 210.454 87.888 208.635 87.88 206.814 C 87.811 195.113 88.696 183.907 90.76 172.376 C 90.949 171.316 91.147 170.256 91.336 169.164 C 93.924 155.326 98.748 143.141 105.378 130.683 C 105.928 129.638 105.928 129.638 106.487 128.572 C 112.841 116.494 120.778 105.716 130.314 95.791 C 131.913 94.12 133.427 92.404 134.94 90.657 C 148.973 75.154 167.967 64.249 187.065 55.635 C 187.632 55.38 188.2 55.124 188.776 54.86 C 208.476 46.09 230.119 42.202 251.666 41.391 Z" fill="#3089CA" style="stroke-width: 1;" id="object-0"/></svg>